Coordinates
version=1
nRows=6
nColumns=36
inDegrees=yes

Units are S.I. units (second, meters, Newtons, ...)
If the header above contains a line with 'inDegrees', this indicates whether rotational values are in degrees (yes) or radians (no).

endheader
time	pelvis_tilt	pelvis_list	pelvis_rotation	pelvis_tx	pelvis_ty	pelvis_tz	hip_flexion_r	hip_adduction_r	hip_rotation_r	knee_angle_r	knee_angle_r_beta	ankle_angle_r	subtalar_angle_r	mtp_angle_r	hip_flexion_l	hip_adduction_l	hip_rotation_l	knee_angle_l	knee_angle_l_beta	ankle_angle_l	subtalar_angle_l	mtp_angle_l	lumbar_extension	lumbar_bending	lumbar_rotation	arm_flex_r	arm_add_r	arm_rot_r	elbow_flex_r	pro_sup_r	arm_flex_l	arm_add_l	arm_rot_l	elbow_flex_l	pro_sup_l
      0.00000000	     -5.69715363	      2.21741890	     -0.21457024	     -0.34033378	      1.30508444	     -0.05442106	     10.75714095	     -3.37678721	      1.11734176	     17.95271259	      0.31333394	      4.92708623	    -18.00450749	     -5.47999782	      6.00344613	      2.12841957	     -0.77939925	      9.36719003	      0.16348831	      2.21774941	    -10.81047417	     -5.47999782	     -5.55141968	     -2.64468627	     -5.58485534	      8.25432563	     -8.04796805	     31.43337244	     22.39470116	     72.60178813	     -5.26099104	    -12.47344671	     16.65096998	     32.38924905	     68.66805358
      0.01666670	     -7.22533489	      2.54741785	     -0.30619697	     -0.33936266	      1.30404855	     -0.05447778	     12.22193077	     -3.54381298	      1.08298867	     17.72553853	      0.30936901	      7.32933882	    -15.21642273	     -6.11979917	      7.32712022	      2.93306396	     -0.15623733	      8.47577746	      0.14793022	      3.28263468	     -9.13117857	     -6.11979917	     -3.30499873	     -2.65859293	     -6.04539811	      8.48398250	     -7.60110685	     31.12813586	     21.67144956	     77.01562546	     -6.25594014	    -11.99907377	     14.98759896	     33.40703391	     70.41500893
      0.03333330	     -7.53772502	      3.24072107	     -0.95484256	     -0.34568836	      1.30664157	     -0.04937378	     12.36742540	     -4.03531107	      1.11471459	     16.49826734	      0.28794909	      7.92406286	    -15.18758608	     -6.12580598	      8.10686077	      3.51217649	     -0.43156768	      8.55255930	      0.14927032	      3.66332134	     -9.33398575	     -6.12580598	     -3.32558176	     -3.38513656	     -5.97510369	      9.11380346	     -7.08530497	     30.99201887	     21.96229941	     77.03071532	     -5.58507439	    -12.39491469	     14.91881096	     33.65832191	     70.47498108
      0.05000000	     -7.38926315	      3.60549614	     -1.14057029	     -0.34649204	      1.30194885	     -0.04895941	     12.19527298	     -4.39271999	      0.63050373	     15.96158686	      0.27858224	      8.76965626	    -13.91445290	     -6.14449288	      7.76708631	      3.87470609	     -0.62447264	      7.97150952	      0.13912909	      4.05423948	     -8.55666314	     -6.14449288	     -3.70183802	     -3.73658081	     -5.53764302	      9.01642943	     -6.97285746	     28.68767377	     23.00868655	     76.01868731	     -5.40958963	    -12.67938316	     14.56770972	     35.05138433	     70.25947571
      0.06666670	     -7.85374448	      3.84231542	     -0.98602168	     -0.35258212	      1.30511442	     -0.04482837	     12.72112511	     -4.44233544	      0.49582246	     15.38931299	      0.26859418	      8.60885172	    -14.11954276	     -6.73686959	      8.43818745	      4.05635930	     -0.41722654	      7.84709524	      0.13695765	      3.52046527	     -9.43806624	     -6.73686959	     -3.62590519	     -3.93333782	     -4.41320792	      8.02368480	     -6.19196265	     19.69846130	     23.95855475	     85.49183756	     -3.35355678	    -12.83122817	     15.69664639	     34.17895883	     77.29005173
      0.08333330	     -7.81194917	      3.93630311	     -0.94657077	     -0.35271489	      1.30487328	     -0.04498510	     12.67341855	     -4.42550798	      0.39373661	     14.99628526	      0.26173455	      8.53127737	    -13.98543590	     -6.80172454	      8.61577837	      4.08610701	     -0.03814999	      7.73872894	      0.13506630	      3.55388235	     -8.79929659	     -6.80172454	     -3.73628441	     -3.83748061	     -4.33217464	      8.53192807	     -6.03906659	     18.81863627	     23.87774760	     84.65869911	     -2.26764235	    -12.82230609	     15.41972256	     33.98537885	     76.65291356
